<?xml version="1.0" encoding="UTF-8" standalone="no"?><!DOCTYPE svg PUBLIC "-//W3C//DTD SVG 1.1//EN" "http://www.w3.org/Graphics/SVG/1.1/DTD/svg11.dtd"><!-- Generated by graphviz version 2.40.1 (20161225.0304)
 --><!-- Title: G Pages: 1 --><svg xmlns="http://www.w3.org/2000/svg" xmlns:xlink="http://www.w3.org/1999/xlink" width="1526pt" height="1498pt" viewBox="0.00 0.00 1526.00 1498.00">
<g id="graph0" class="graph" transform="scale(1 1) rotate(0) translate(4 1494)">
<title>G</title>
<polygon fill="#ffffff" stroke="transparent" points="-4,4 -4,-1494 1522,-1494 1522,4 -4,4"/>
<!-- pj -->
<g id="node1" class="node">
<title>pj</title>
<polygon fill="#87cefa" stroke="#000000" points="1515.203,-675.5338 1501.703,-693.5338 1474.703,-693.5338 1461.203,-675.5338 1474.703,-657.5338 1501.703,-657.5338 1515.203,-675.5338"/>
<text text-anchor="middle" x="1488.203" y="-671.3338" font-family="Times,serif" font-size="14.00" fill="#000000">pj</text>
</g>
<!-- sh -->
<g id="node2" class="node">
<title>sh</title>
<polygon fill="#87cefa" stroke="#000000" points="1422.5046,-583.3143 1409.0046,-601.3143 1382.0046,-601.3143 1368.5046,-583.3143 1382.0046,-565.3143 1409.0046,-565.3143 1422.5046,-583.3143"/>
<text text-anchor="middle" x="1395.5046" y="-579.1143" font-family="Times,serif" font-size="14.00" fill="#000000">sh</text>
</g>
<!-- pj&#45;&gt;sh -->
<g id="edge1" class="edge">
<title>pj-&gt;sh</title>
<path fill="none" stroke="#000000" d="M1472.478,-659.89C1457.6062,-645.0951 1435.1207,-622.7258 1418.2866,-605.9786"/>
<polygon fill="#000000" stroke="#000000" points="1420.5552,-603.2985 1410.9974,-598.727 1415.6183,-608.2611 1420.5552,-603.2985"/>
</g>
<!-- dl -->
<g id="node14" class="node">
<title>dl</title>
<polygon fill="#ffd700" stroke="#000000" points="1251.9036,-633.9851 1278.9036,-621.5474 1305.9036,-633.9851 1305.8784,-654.1097 1251.9288,-654.1097 1251.9036,-633.9851"/>
<text text-anchor="middle" x="1278.9036" y="-635.3474" font-family="Times,serif" font-size="14.00" fill="#000000">dl</text>
</g>
<!-- sh&#45;&gt;dl -->
<g id="edge83" class="edge">
<title>sh-&gt;dl</title>
<path fill="none" stroke="#000000" d="M1375.4601,-592.9811C1356.7137,-602.0219 1328.5189,-615.6194 1307.4293,-625.7903"/>
<polygon fill="#000000" stroke="#000000" points="1305.7859,-622.697 1298.299,-630.1935 1308.8266,-629.0021 1305.7859,-622.697"/>
</g>
<!-- hn -->
<g id="node35" class="node">
<title>hn</title>
<polygon fill="#87cefa" stroke="#000000" points="1334.9892,-482.5422 1321.4892,-500.5422 1294.4892,-500.5422 1280.9892,-482.5422 1294.4892,-464.5422 1321.4892,-464.5422 1334.9892,-482.5422"/>
<text text-anchor="middle" x="1307.9892" y="-478.3422" font-family="Times,serif" font-size="14.00" fill="#000000">hn</text>
</g>
<!-- sh&#45;&gt;hn -->
<g id="edge84" class="edge">
<title>sh-&gt;hn</title>
<path fill="none" stroke="#000000" d="M1380.6588,-566.2197C1366.6186,-550.0526 1345.3903,-525.6088 1329.4974,-507.3085"/>
<polygon fill="#000000" stroke="#000000" points="1331.8153,-504.6396 1322.6157,-499.3843 1326.5302,-509.2295 1331.8153,-504.6396"/>
</g>
<!-- mn -->
<g id="node3" class="node">
<title>mn</title>
<polygon fill="#87cefa" stroke="#000000" points="1284.2519,-758.1866 1270.7519,-776.1866 1243.7519,-776.1866 1230.2519,-758.1866 1243.7519,-740.1866 1270.7519,-740.1866 1284.2519,-758.1866"/>
<text text-anchor="middle" x="1257.2519" y="-753.9866" font-family="Times,serif" font-size="14.00" fill="#000000">mn</text>
</g>
<!-- jp -->
<g id="node4" class="node">
<title>jp</title>
<polygon fill="#87cefa" stroke="#000000" points="1408.2915,-777.5176 1394.7915,-795.5176 1367.7915,-795.5176 1354.2915,-777.5176 1367.7915,-759.5176 1394.7915,-759.5176 1408.2915,-777.5176"/>
<text text-anchor="middle" x="1381.2915" y="-773.3176" font-family="Times,serif" font-size="14.00" fill="#000000">jp</text>
</g>
<!-- mn&#45;&gt;jp -->
<g id="edge2" class="edge">
<title>mn-&gt;jp</title>
<path fill="none" stroke="#000000" d="M1281.4625,-761.9597C1300.039,-764.8548 1325.9338,-768.8904 1346.695,-772.1259"/>
<polygon fill="#000000" stroke="#000000" points="1346.2984,-775.6063 1356.7181,-773.6879 1347.3763,-768.6897 1346.2984,-775.6063"/>
</g>
<!-- jp&#45;&gt;pj -->
<g id="edge26" class="edge">
<title>jp-&gt;pj</title>
<path fill="none" stroke="#000000" d="M1397.0666,-762.4695C1414.9902,-745.3721 1444.4131,-717.3053 1464.9638,-697.7019"/>
<polygon fill="#000000" stroke="#000000" points="1467.5431,-700.0785 1472.3631,-690.6436 1462.7114,-695.0134 1467.5431,-700.0785"/>
</g>
<!-- jp&#45;&gt;dl -->
<g id="edge27" class="edge">
<title>jp-&gt;dl</title>
<path fill="none" stroke="#000000" d="M1367.906,-759.4804C1349.4172,-734.5661 1316.0629,-689.6205 1295.8548,-662.3896"/>
<polygon fill="#000000" stroke="#000000" points="1298.5612,-660.1632 1289.7912,-654.2187 1292.9399,-664.3348 1298.5612,-660.1632"/>
</g>
<!-- hf -->
<g id="node5" class="node">
<title>hf</title>
<polygon fill="#ffd700" stroke="#000000" points="579.0393,-232.832 606.0393,-220.3943 633.0393,-232.832 633.0141,-252.9566 579.0645,-252.9566 579.0393,-232.832"/>
<text text-anchor="middle" x="606.0393" y="-234.1943" font-family="Times,serif" font-size="14.00" fill="#000000">hf</text>
</g>
<!-- rg -->
<g id="node6" class="node">
<title>rg</title>
<polygon fill="#87cefa" stroke="#000000" points="751.163,-462.6372 737.663,-480.6372 710.663,-480.6372 697.163,-462.6372 710.663,-444.6372 737.663,-444.6372 751.163,-462.6372"/>
<text text-anchor="middle" x="724.163" y="-458.4372" font-family="Times,serif" font-size="14.00" fill="#000000">rg</text>
</g>
<!-- hf&#45;&gt;rg -->
<g id="edge3" class="edge">
<title>hf-&gt;rg</title>
<path fill="none" stroke="#000000" d="M609.914,-252.9931C624.9714,-290.1767 676.3166,-388.5882 704.9268,-436.1799"/>
<polygon fill="#000000" stroke="#000000" points="702.1166,-438.2926 710.3282,-444.9875 708.0839,-434.633 702.1166,-438.2926"/>
</g>
<!-- vl -->
<g id="node7" class="node">
<title>vl</title>
<polygon fill="#87cefa" stroke="#000000" points="686.5447,-24.5934 673.0447,-42.5934 646.0447,-42.5934 632.5447,-24.5934 646.0447,-6.5934 673.0447,-6.5934 686.5447,-24.5934"/>
<text text-anchor="middle" x="659.5447" y="-20.3934" font-family="Times,serif" font-size="14.00" fill="#000000">vl</text>
</g>
<!-- hf&#45;&gt;vl -->
<g id="edge4" class="edge">
<title>hf-&gt;vl</title>
<path fill="none" stroke="#000000" d="M610.1489,-221.9727C619.2525,-185.5959 641.2054,-97.875 652.5285,-52.629"/>
<polygon fill="#000000" stroke="#000000" points="655.9375,-53.4238 654.97,-42.8732 649.1469,-51.7243 655.9375,-53.4238"/>
</g>
<!-- tq -->
<g id="node8" class="node">
<title>tq</title>
<polygon fill="#87cefa" stroke="#000000" points="792.4264,-167.9506 778.9264,-185.9506 751.9264,-185.9506 738.4264,-167.9506 751.9264,-149.9506 778.9264,-149.9506 792.4264,-167.9506"/>
<text text-anchor="middle" x="765.4264" y="-163.7506" font-family="Times,serif" font-size="14.00" fill="#000000">tq</text>
</g>
<!-- hf&#45;&gt;tq -->
<g id="edge5" class="edge">
<title>hf-&gt;tq</title>
<path fill="none" stroke="#000000" d="M626.2258,-229.4726C653.8585,-217.2598 703.6674,-195.246 735.6064,-181.1301"/>
<polygon fill="#000000" stroke="#000000" points="737.1688,-184.2662 744.9004,-177.0225 734.339,-177.8637 737.1688,-184.2662"/>
</g>
<!-- qq -->
<g id="node9" class="node">
<title>qq</title>
<polygon fill="#ffd700" stroke="#000000" points="623.3945,-473.5696 650.3945,-461.1319 677.3945,-473.5696 677.3693,-493.6942 623.4197,-493.6942 623.3945,-473.5696"/>
<text text-anchor="middle" x="650.3945" y="-474.9319" font-family="Times,serif" font-size="14.00" fill="#000000">qq</text>
</g>
<!-- hf&#45;&gt;qq -->
<g id="edge6" class="edge">
<title>hf-&gt;qq</title>
<path fill="none" stroke="#000000" d="M608.7471,-253.0911C616.0345,-292.6432 636.1413,-401.7726 645.4931,-452.5294"/>
<polygon fill="#000000" stroke="#000000" points="642.0628,-453.228 647.3169,-462.4283 648.947,-451.9596 642.0628,-453.228"/>
</g>
<!-- mv -->
<g id="node10" class="node">
<title>mv</title>
<polygon fill="#87cefa" stroke="#000000" points="771.8543,-74.2254 758.3543,-92.2254 731.3543,-92.2254 717.8543,-74.2254 731.3543,-56.2254 758.3543,-56.2254 771.8543,-74.2254"/>
<text text-anchor="middle" x="744.8543" y="-70.0254" font-family="Times,serif" font-size="14.00" fill="#000000">mv</text>
</g>
<!-- hf&#45;&gt;mv -->
<g id="edge7" class="edge">
<title>hf-&gt;mv</title>
<path fill="none" stroke="#000000" d="M617.1645,-225.2372C640.2743,-197.9064 693.8066,-134.5967 723.6999,-99.2436"/>
<polygon fill="#000000" stroke="#000000" points="726.6216,-101.209 730.4057,-91.313 721.2763,-96.6892 726.6216,-101.209"/>
</g>
<!-- zz -->
<g id="node11" class="node">
<title>zz</title>
<polygon fill="#87cefa" stroke="#000000" points="601.676,-18.1057 588.176,-36.1057 561.176,-36.1057 547.676,-18.1057 561.176,-.1057 588.176,-.1057 601.676,-18.1057"/>
<text text-anchor="middle" x="574.676" y="-13.9057" font-family="Times,serif" font-size="14.00" fill="#000000">zz</text>
</g>
<!-- hf&#45;&gt;zz -->
<g id="edge8" class="edge">
<title>hf-&gt;zz</title>
<path fill="none" stroke="#000000" d="M603.6303,-221.4744C598.2675,-183.8068 585.2974,-92.7081 578.6898,-46.2978"/>
<polygon fill="#000000" stroke="#000000" points="582.1428,-45.719 577.2681,-36.3122 575.2126,-46.7058 582.1428,-45.719"/>
</g>
<!-- rg&#45;&gt;hf -->
<g id="edge104" class="edge">
<title>rg-&gt;hf</title>
<path fill="none" stroke="#000000" d="M718.7845,-444.4058C701.7068,-403.9434 650.8608,-306.8832 623.5072,-261.9273"/>
<polygon fill="#000000" stroke="#000000" points="626.3061,-259.8009 618.0475,-253.1642 620.3649,-263.5025 626.3061,-259.8009"/>
</g>
<!-- fb -->
<g id="node45" class="node">
<title>fb</title>
<polygon fill="#87cefa" stroke="#000000" points="759.0975,-313.2699 745.5975,-331.2699 718.5975,-331.2699 705.0975,-313.2699 718.5975,-295.2699 745.5975,-295.2699 759.0975,-313.2699"/>
<text text-anchor="middle" x="732.0975" y="-309.0699" font-family="Times,serif" font-size="14.00" fill="#000000">fb</text>
</g>
<!-- rg&#45;&gt;fb -->
<g id="edge105" class="edge">
<title>rg-&gt;fb</title>
<path fill="none" stroke="#000000" d="M725.1201,-444.62C726.4783,-419.051 728.9785,-371.9846 730.5881,-341.6846"/>
<polygon fill="#000000" stroke="#000000" points="734.1015,-341.5226 731.137,-331.351 727.1114,-341.1512 734.1015,-341.5226"/>
</g>
<!-- vg -->
<g id="node33" class="node">
<title>vg</title>
<polygon fill="#87cefa" stroke="#000000" points="699.8167,-69.4811 686.3167,-87.4811 659.3167,-87.4811 645.8167,-69.4811 659.3167,-51.4811 686.3167,-51.4811 699.8167,-69.4811"/>
<text text-anchor="middle" x="672.8167" y="-65.2811" font-family="Times,serif" font-size="14.00" fill="#000000">vg</text>
</g>
<!-- vl&#45;&gt;vg -->
<g id="edge66" class="edge">
<title>vl-&gt;vg</title>
<path fill="none" stroke="#000000" d="M664.9429,-42.851C664.9689,-42.9389 664.995,-43.027 665.021,-43.1152"/>
<polygon fill="#000000" stroke="#000000" points="661.2744,-42.7881 667.4663,-51.3853 667.9872,-40.8032 661.2744,-42.7881"/>
</g>
<!-- tq&#45;&gt;mv -->
<g id="edge89" class="edge">
<title>tq-&gt;mv</title>
<path fill="none" stroke="#000000" d="M761.4599,-149.8795C758.5001,-136.3947 754.4005,-117.7171 751.0153,-102.2945"/>
<polygon fill="#000000" stroke="#000000" points="754.3712,-101.2582 748.8086,-92.2411 747.534,-102.759 754.3712,-101.2582"/>
</g>
<!-- kz -->
<g id="node18" class="node">
<title>kz</title>
<polygon fill="#ffd700" stroke="#000000" points="672.2763,-712.9665 699.2763,-700.5288 726.2763,-712.9665 726.2511,-733.0911 672.3015,-733.0911 672.2763,-712.9665"/>
<text text-anchor="middle" x="699.2763" y="-714.3288" font-family="Times,serif" font-size="14.00" fill="#000000">kz</text>
</g>
<!-- qq&#45;&gt;kz -->
<g id="edge41" class="edge">
<title>qq-&gt;kz</title>
<path fill="none" stroke="#000000" d="M653.3787,-493.7468C661.4098,-533.0787 683.5685,-641.6003 693.8747,-692.0745"/>
<polygon fill="#000000" stroke="#000000" points="690.4547,-692.8207 695.8846,-701.9183 697.3132,-691.4202 690.4547,-692.8207"/>
</g>
<!-- mv&#45;&gt;vl -->
<g id="edge61" class="edge">
<title>mv-&gt;vl</title>
<path fill="none" stroke="#000000" d="M725.9213,-63.2105C714.5452,-56.592 699.8684,-48.0532 687.2096,-40.6885"/>
<polygon fill="#000000" stroke="#000000" points="688.8284,-37.5811 678.4247,-35.5776 685.3083,-43.6316 688.8284,-37.5811"/>
</g>
<!-- np -->
<g id="node46" class="node">
<title>np</title>
<polygon fill="#87cefa" stroke="#000000" points="520.7852,-60.357 507.2852,-78.357 480.2852,-78.357 466.7852,-60.357 480.2852,-42.357 507.2852,-42.357 520.7852,-60.357"/>
<text text-anchor="middle" x="493.7852" y="-56.157" font-family="Times,serif" font-size="14.00" fill="#000000">np</text>
</g>
<!-- zz&#45;&gt;np -->
<g id="edge49" class="edge">
<title>zz-&gt;np</title>
<path fill="none" stroke="#000000" d="M555.0946,-28.3336C545.258,-33.4715 533.154,-39.7937 522.3067,-45.4595"/>
<polygon fill="#000000" stroke="#000000" points="520.4296,-42.4913 513.1863,-50.2234 523.6704,-48.6959 520.4296,-42.4913"/>
</g>
<!-- xl -->
<g id="node12" class="node">
<title>xl</title>
<polygon fill="#87cefa" stroke="#000000" points="427.679,-168.3231 414.179,-186.3231 387.179,-186.3231 373.679,-168.3231 387.179,-150.3231 414.179,-150.3231 427.679,-168.3231"/>
<text text-anchor="middle" x="400.679" y="-164.1231" font-family="Times,serif" font-size="14.00" fill="#000000">xl</text>
</g>
<!-- xl&#45;&gt;hf -->
<g id="edge9" class="edge">
<title>xl-&gt;hf</title>
<path fill="none" stroke="#000000" d="M422.268,-175.6895C458.4959,-188.0509 531.6996,-213.0288 573.9631,-227.4496"/>
<polygon fill="#000000" stroke="#000000" points="572.9017,-230.7855 583.4962,-230.7024 575.1623,-224.1605 572.9017,-230.7855"/>
</g>
<!-- sv -->
<g id="node13" class="node">
<title>sv</title>
<polygon fill="#87cefa" stroke="#000000" points="1107.4548,-717.8323 1093.9548,-735.8323 1066.9548,-735.8323 1053.4548,-717.8323 1066.9548,-699.8323 1093.9548,-699.8323 1107.4548,-717.8323"/>
<text text-anchor="middle" x="1080.4548" y="-713.6323" font-family="Times,serif" font-size="14.00" fill="#000000">sv</text>
</g>
<!-- sv&#45;&gt;mn -->
<g id="edge10" class="edge">
<title>sv-&gt;mn</title>
<path fill="none" stroke="#000000" d="M1103.5679,-723.1079C1134.4068,-730.147 1189.1966,-742.6529 1224.3416,-750.6748"/>
<polygon fill="#000000" stroke="#000000" points="1223.605,-754.0966 1234.1331,-752.9097 1225.1627,-747.2721 1223.605,-754.0966"/>
</g>
<!-- sv&#45;&gt;dl -->
<g id="edge11" class="edge">
<title>sv-&gt;dl</title>
<path fill="none" stroke="#000000" d="M1104.0771,-713.2787C1139.2863,-702.3641 1205.6082,-676.5117 1245.6833,-658.3488"/>
<polygon fill="#000000" stroke="#000000" points="1247.1778,-661.5139 1254.7859,-654.1405 1244.2403,-655.16 1247.1778,-661.5139"/>
</g>
<!-- dl&#45;&gt;pj -->
<g id="edge90" class="edge">
<title>dl-&gt;pj</title>
<path fill="none" stroke="#000000" d="M1306.2658,-644.252C1344.2657,-650.7856 1412.9837,-662.6008 1454.222,-669.6912"/>
<polygon fill="#000000" stroke="#000000" points="1453.6303,-673.1407 1464.0788,-671.386 1454.8165,-666.242 1453.6303,-673.1407"/>
</g>
<!-- dl&#45;&gt;mn -->
<g id="edge91" class="edge">
<title>dl-&gt;mn</title>
<path fill="none" stroke="#000000" d="M1276.1614,-654.5731C1272.7076,-673.4979 1266.7036,-706.3968 1262.3866,-730.0515"/>
<polygon fill="#000000" stroke="#000000" points="1258.8894,-729.7201 1260.5371,-740.186 1265.7756,-730.9769 1258.8894,-729.7201"/>
</g>
<!-- dl&#45;&gt;sv -->
<g id="edge92" class="edge">
<title>dl-&gt;sv</title>
<path fill="none" stroke="#000000" d="M1251.6406,-645.2472C1213.8672,-657.3109 1146.043,-683.972 1108.0795,-701.5965"/>
<polygon fill="#000000" stroke="#000000" points="1106.18,-698.6246 1098.6601,-706.088 1109.1929,-704.9431 1106.18,-698.6246"/>
</g>
<!-- dl&#45;&gt;hn -->
<g id="edge93" class="edge">
<title>dl-&gt;hn</title>
<path fill="none" stroke="#000000" d="M1282.0163,-622.7451C1286.9669,-596.0215 1296.6914,-543.5283 1302.7351,-510.9039"/>
<polygon fill="#000000" stroke="#000000" points="1306.2512,-511.1379 1304.6314,-500.6677 1299.3683,-509.8628 1306.2512,-511.1379"/>
</g>
<!-- jg -->
<g id="node36" class="node">
<title>jg</title>
<polygon fill="#87cefa" stroke="#000000" points="1440.8956,-524.8081 1427.3956,-542.8081 1400.3956,-542.8081 1386.8956,-524.8081 1400.3956,-506.8081 1427.3956,-506.8081 1440.8956,-524.8081"/>
<text text-anchor="middle" x="1413.8956" y="-520.6081" font-family="Times,serif" font-size="14.00" fill="#000000">jg</text>
</g>
<!-- dl&#45;&gt;jg -->
<g id="edge94" class="edge">
<title>dl-&gt;jg</title>
<path fill="none" stroke="#000000" d="M1292.8417,-627.7004C1315.6495,-608.3144 1361.2291,-569.5731 1389.4893,-545.5527"/>
<polygon fill="#000000" stroke="#000000" points="1391.9605,-548.0457 1397.3133,-538.9025 1387.4271,-542.7121 1391.9605,-548.0457"/>
</g>
<!-- ls -->
<g id="node41" class="node">
<title>ls</title>
<polygon fill="#ffd700" stroke="#000000" points="971.1989,-665.946 998.1989,-653.5083 1025.1989,-665.946 1025.1737,-686.0706 971.2241,-686.0706 971.1989,-665.946"/>
<text text-anchor="middle" x="998.1989" y="-667.3083" font-family="Times,serif" font-size="14.00" fill="#000000">ls</text>
</g>
<!-- dl&#45;&gt;ls -->
<g id="edge95" class="edge">
<title>dl-&gt;ls</title>
<path fill="none" stroke="#000000" d="M1251.7334,-642.6409C1201.2174,-648.3927 1092.7793,-660.7394 1035.4654,-667.2651"/>
<polygon fill="#000000" stroke="#000000" points="1034.9239,-663.8041 1025.3841,-668.413 1035.7158,-670.7591 1034.9239,-663.8041"/>
</g>
<!-- kk -->
<g id="node15" class="node">
<title>kk</title>
<polygon fill="#87cefa" stroke="#000000" points="975.2323,-1381.2179 961.7323,-1399.2179 934.7323,-1399.2179 921.2323,-1381.2179 934.7323,-1363.2179 961.7323,-1363.2179 975.2323,-1381.2179"/>
<text text-anchor="middle" x="948.2323" y="-1377.0179" font-family="Times,serif" font-size="14.00" fill="#000000">kk</text>
</g>
<!-- lh -->
<g id="node16" class="node">
<title>lh</title>
<polygon fill="#87cefa" stroke="#000000" points="843.078,-1364.3589 829.578,-1382.3589 802.578,-1382.3589 789.078,-1364.3589 802.578,-1346.3589 829.578,-1346.3589 843.078,-1364.3589"/>
<text text-anchor="middle" x="816.078" y="-1360.1589" font-family="Times,serif" font-size="14.00" fill="#000000">lh</text>
</g>
<!-- kk&#45;&gt;lh -->
<g id="edge12" class="edge">
<title>kk-&gt;lh</title>
<path fill="none" stroke="#000000" d="M923.3751,-1378.0468C902.8859,-1375.433 873.593,-1371.6961 850.7895,-1368.7871"/>
<polygon fill="#000000" stroke="#000000" points="851.1863,-1365.3094 840.8237,-1367.5157 850.3004,-1372.2531 851.1863,-1365.3094"/>
</g>
<!-- rd -->
<g id="node54" class="node">
<title>rd</title>
<polygon fill="#87cefa" stroke="#000000" points="757.3443,-1352.0113 743.8443,-1370.0113 716.8443,-1370.0113 703.3443,-1352.0113 716.8443,-1334.0113 743.8443,-1334.0113 757.3443,-1352.0113"/>
<text text-anchor="middle" x="730.3443" y="-1347.8113" font-family="Times,serif" font-size="14.00" fill="#000000">rd</text>
</g>
<!-- lh&#45;&gt;rd -->
<g id="edge72" class="edge">
<title>lh-&gt;rd</title>
<path fill="none" stroke="#000000" d="M791.2802,-1360.7874C783.0338,-1359.5998 773.6954,-1358.2548 764.8509,-1356.981"/>
<polygon fill="#000000" stroke="#000000" points="765.1871,-1353.4934 754.7902,-1355.532 764.1891,-1360.4219 765.1871,-1353.4934"/>
</g>
<!-- sj -->
<g id="node17" class="node">
<title>sj</title>
<polygon fill="#ffd700" stroke="#000000" points="440.4639,-791.5931 467.4639,-779.1554 494.4639,-791.5931 494.4387,-811.7177 440.4891,-811.7177 440.4639,-791.5931"/>
<text text-anchor="middle" x="467.4639" y="-792.9554" font-family="Times,serif" font-size="14.00" fill="#000000">sj</text>
</g>
<!-- sj&#45;&gt;kz -->
<g id="edge13" class="edge">
<title>sj-&gt;kz</title>
<path fill="none" stroke="#000000" d="M490.1131,-789.4732C530.2949,-775.8443 614.3732,-747.3264 662.8022,-730.9002"/>
<polygon fill="#000000" stroke="#000000" points="663.932,-734.2129 672.2779,-727.6862 661.6835,-727.5838 663.932,-734.2129"/>
</g>
<!-- rx -->
<g id="node51" class="node">
<title>rx</title>
<polygon fill="#ff4500" stroke="#000000" points="621.2011,-669.6883 585.2011,-669.6883 585.2011,-633.6883 621.2011,-633.6883 621.2011,-669.6883"/>
<polyline fill="none" stroke="#000000" points="597.2011,-669.6883 585.2011,-657.6883 "/>
<polyline fill="none" stroke="#000000" points="585.2011,-645.6883 597.2011,-633.6883 "/>
<polyline fill="none" stroke="#000000" points="609.2011,-633.6883 621.2011,-645.6883 "/>
<polyline fill="none" stroke="#000000" points="621.2011,-657.6883 609.2011,-669.6883 "/>
<text text-anchor="middle" x="603.2011" y="-647.4883" font-family="Times,serif" font-size="14.00" fill="#000000">rx</text>
</g>
<!-- kz&#45;&gt;rx -->
<g id="edge62" class="edge">
<title>kz-&gt;rx</title>
<path fill="none" stroke="#000000" d="M683.4114,-707.4915C668.888,-697.3874 647.1033,-682.2315 629.9006,-670.2634"/>
<polygon fill="#000000" stroke="#000000" points="631.5928,-667.177 621.3851,-664.339 627.595,-672.9231 631.5928,-667.177"/>
</g>
<!-- jj -->
<g id="node19" class="node">
<title>jj</title>
<polygon fill="#87cefa" stroke="#000000" points="1052.8244,-1406.4335 1039.3244,-1424.4335 1012.3244,-1424.4335 998.8244,-1406.4335 1012.3244,-1388.4335 1039.3244,-1388.4335 1052.8244,-1406.4335"/>
<text text-anchor="middle" x="1025.8244" y="-1402.2335" font-family="Times,serif" font-size="14.00" fill="#000000">jj</text>
</g>
<!-- jj&#45;&gt;kk -->
<g id="edge14" class="edge">
<title>jj-&gt;kk</title>
<path fill="none" stroke="#000000" d="M1003.7972,-1399.2752C996.2799,-1396.8322 987.7225,-1394.0513 979.614,-1391.4162"/>
<polygon fill="#000000" stroke="#000000" points="980.6382,-1388.0689 970.046,-1388.3068 978.4747,-1394.7262 980.6382,-1388.0689"/>
</g>
<!-- lq -->
<g id="node20" class="node">
<title>lq</title>
<polygon fill="#ffd700" stroke="#000000" points="842.6292,-1253.769 869.6292,-1241.3313 896.6292,-1253.769 896.604,-1273.8936 842.6544,-1273.8936 842.6292,-1253.769"/>
<text text-anchor="middle" x="869.6292" y="-1255.1313" font-family="Times,serif" font-size="14.00" fill="#000000">lq</text>
</g>
<!-- jj&#45;&gt;lq -->
<g id="edge15" class="edge">
<title>jj-&gt;lq</title>
<path fill="none" stroke="#000000" d="M1009.988,-1391.5191C982.3897,-1365.5274 925.3552,-1311.8132 893.1322,-1281.4661"/>
<polygon fill="#000000" stroke="#000000" points="895.1869,-1278.5934 885.5075,-1274.2853 890.3877,-1283.6892 895.1869,-1278.5934"/>
</g>
<!-- lq&#45;&gt;kk -->
<g id="edge98" class="edge">
<title>lq-&gt;kk</title>
<path fill="none" stroke="#000000" d="M879.2674,-1274.277C892.1193,-1294.2058 915.0887,-1329.8236 930.9673,-1354.4458"/>
<polygon fill="#000000" stroke="#000000" points="928.1035,-1356.4631 936.4646,-1362.9702 933.9863,-1352.6693 928.1035,-1356.4631"/>
</g>
<!-- lq&#45;&gt;lh -->
<g id="edge99" class="edge">
<title>lq-&gt;lh</title>
<path fill="none" stroke="#000000" d="M862.1831,-1273.935C853.8966,-1290.1869 840.3213,-1316.8116 830.042,-1336.9718"/>
<polygon fill="#000000" stroke="#000000" points="826.8647,-1335.4983 825.4403,-1345.9969 833.1009,-1338.678 826.8647,-1335.4983"/>
</g>
<!-- fm -->
<g id="node40" class="node">
<title>fm</title>
<polygon fill="#87cefa" stroke="#000000" points="1076.4827,-1256.1076 1062.9827,-1274.1076 1035.9827,-1274.1076 1022.4827,-1256.1076 1035.9827,-1238.1076 1062.9827,-1238.1076 1076.4827,-1256.1076"/>
<text text-anchor="middle" x="1049.4827" y="-1251.9076" font-family="Times,serif" font-size="14.00" fill="#000000">fm</text>
</g>
<!-- lq&#45;&gt;fm -->
<g id="edge100" class="edge">
<title>lq-&gt;fm</title>
<path fill="none" stroke="#000000" d="M896.945,-1258.8417C927.8474,-1258.2878 978.3325,-1257.3829 1012.6874,-1256.7671"/>
<polygon fill="#000000" stroke="#000000" points="1012.8563,-1260.2647 1022.7919,-1256.586 1012.7308,-1253.2659 1012.8563,-1260.2647"/>
</g>
<!-- dz -->
<g id="node48" class="node">
<title>dz</title>
<polygon fill="#87cefa" stroke="#000000" points="806.3294,-1428.3671 792.8294,-1446.3671 765.8294,-1446.3671 752.3294,-1428.3671 765.8294,-1410.3671 792.8294,-1410.3671 806.3294,-1428.3671"/>
<text text-anchor="middle" x="779.3294" y="-1424.1671" font-family="Times,serif" font-size="14.00" fill="#000000">dz</text>
</g>
<!-- lq&#45;&gt;dz -->
<g id="edge101" class="edge">
<title>lq-&gt;dz</title>
<path fill="none" stroke="#000000" d="M861.7736,-1274.0364C846.6088,-1302.424 813.0973,-1365.1556 793.793,-1401.2921"/>
<polygon fill="#000000" stroke="#000000" points="790.6062,-1399.8297 788.9814,-1410.2992 796.7804,-1403.128 790.6062,-1399.8297"/>
</g>
<!-- bg -->
<g id="node53" class="node">
<title>bg</title>
<polygon fill="#ffd700" stroke="#000000" points="755.1488,-986.2301 782.1488,-973.7924 809.1488,-986.2301 809.1236,-1006.3548 755.174,-1006.3548 755.1488,-986.2301"/>
<text text-anchor="middle" x="782.1488" y="-987.5924" font-family="Times,serif" font-size="14.00" fill="#000000">bg</text>
</g>
<!-- lq&#45;&gt;bg -->
<g id="edge102" class="edge">
<title>lq-&gt;bg</title>
<path fill="none" stroke="#000000" d="M864.4188,-1243.3968C849.7286,-1198.4701 807.8992,-1070.5441 790.2075,-1016.438"/>
<polygon fill="#000000" stroke="#000000" points="793.4408,-1015.0645 787.0062,-1006.6475 786.7874,-1017.2401 793.4408,-1015.0645"/>
</g>
<!-- xr -->
<g id="node56" class="node">
<title>xr</title>
<polygon fill="#87cefa" stroke="#000000" points="896.3151,-1029.6259 882.8151,-1047.6259 855.8151,-1047.6259 842.3151,-1029.6259 855.8151,-1011.6259 882.8151,-1011.6259 896.3151,-1029.6259"/>
<text text-anchor="middle" x="869.3151" y="-1025.4259" font-family="Times,serif" font-size="14.00" fill="#000000">xr</text>
</g>
<!-- lq&#45;&gt;xr -->
<g id="edge103" class="edge">
<title>lq-&gt;xr</title>
<path fill="none" stroke="#000000" d="M873.3095,-1242.8064C876.9829,-1203.9728 877.1581,-1106.5309 873.9821,-1058.0038"/>
<polygon fill="#000000" stroke="#000000" points="877.4601,-1057.5818 873.2041,-1047.8794 870.4807,-1058.1182 877.4601,-1057.5818"/>
</g>
<!-- mr -->
<g id="node21" class="node">
<title>mr</title>
<polygon fill="#87cefa" stroke="#000000" points="514.4445,-845.2552 500.9445,-863.2552 473.9445,-863.2552 460.4445,-845.2552 473.9445,-827.2552 500.9445,-827.2552 514.4445,-845.2552"/>
<text text-anchor="middle" x="487.4445" y="-841.0552" font-family="Times,serif" font-size="14.00" fill="#000000">mr</text>
</g>
<!-- bm -->
<g id="node22" class="node">
<title>bm</title>
<polygon fill="#87cefa" stroke="#000000" points="355.4019,-822.7972 341.9019,-840.7972 314.9019,-840.7972 301.4019,-822.7972 314.9019,-804.7972 341.9019,-804.7972 355.4019,-822.7972"/>
<text text-anchor="middle" x="328.4019" y="-818.5972" font-family="Times,serif" font-size="14.00" fill="#000000">bm</text>
</g>
<!-- mr&#45;&gt;bm -->
<g id="edge16" class="edge">
<title>mr-&gt;bm</title>
<path fill="none" stroke="#000000" d="M462.9426,-841.7954C436.2078,-838.0202 393.1993,-831.9471 363.0226,-827.6859"/>
<polygon fill="#000000" stroke="#000000" points="363.3228,-824.1936 352.9316,-826.261 362.344,-831.1249 363.3228,-824.1936"/>
</g>
<!-- hb -->
<g id="node23" class="node">
<title>hb</title>
<polygon fill="#ffd700" stroke="#000000" points="211.6373,-897.3403 238.6373,-884.9026 265.6373,-897.3403 265.6121,-917.4649 211.6625,-917.4649 211.6373,-897.3403"/>
<text text-anchor="middle" x="238.6373" y="-898.7026" font-family="Times,serif" font-size="14.00" fill="#000000">hb</text>
</g>
<!-- mr&#45;&gt;hb -->
<g id="edge17" class="edge">
<title>mr-&gt;hb</title>
<path fill="none" stroke="#000000" d="M461.2533,-846.9349C414.749,-854.4592 318.0614,-876.7304 268.8341,-891.1249"/>
<polygon fill="#000000" stroke="#000000" points="267.6464,-887.8274 259.0851,-894.0688 269.6699,-894.5286 267.6464,-887.8274"/>
</g>
<!-- bm&#45;&gt;hb -->
<g id="edge50" class="edge">
<title>bm-&gt;hb</title>
<path fill="none" stroke="#000000" d="M311.9377,-837.4898C297.2834,-850.5672 275.7629,-869.772 259.8278,-883.9923"/>
<polygon fill="#000000" stroke="#000000" points="257.2006,-881.6458 252.0699,-890.9154 261.8614,-886.8686 257.2006,-881.6458"/>
</g>
<!-- pd -->
<g id="node42" class="node">
<title>pd</title>
<polygon fill="#87cefa" stroke="#000000" points="223.6222,-754.4024 210.1222,-772.4024 183.1222,-772.4024 169.6222,-754.4024 183.1222,-736.4024 210.1222,-736.4024 223.6222,-754.4024"/>
<text text-anchor="middle" x="196.6222" y="-750.2024" font-family="Times,serif" font-size="14.00" fill="#000000">pd</text>
</g>
<!-- bm&#45;&gt;pd -->
<g id="edge51" class="edge">
<title>bm-&gt;pd</title>
<path fill="none" stroke="#000000" d="M308.9574,-812.7053C286.8647,-801.239 250.5978,-782.4162 225.267,-769.2693"/>
<polygon fill="#000000" stroke="#000000" points="226.6347,-766.0358 216.1466,-764.5357 223.41,-772.2488 226.6347,-766.0358"/>
</g>
<!-- hb&#45;&gt;sj -->
<g id="edge28" class="edge">
<title>hb-&gt;sj</title>
<path fill="none" stroke="#000000" d="M258.1469,-893.8867C296.4476,-876.1869 382.004,-836.6488 431.053,-813.9819"/>
<polygon fill="#000000" stroke="#000000" points="432.7419,-817.0571 440.3512,-809.6849 429.8054,-810.7028 432.7419,-817.0571"/>
</g>
<!-- hb&#45;&gt;mr -->
<g id="edge29" class="edge">
<title>hb-&gt;mr</title>
<path fill="none" stroke="#000000" d="M265.7731,-901.0693C312.5999,-893.4046 408.226,-871.3595 457.1515,-857.061"/>
<polygon fill="#000000" stroke="#000000" points="458.2857,-860.3748 466.8485,-854.1354 456.2637,-853.6731 458.2857,-860.3748"/>
</g>
<!-- rz -->
<g id="node30" class="node">
<title>rz</title>
<polygon fill="#87cefa" stroke="#000000" points="111.2701,-819.5807 97.7701,-837.5807 70.7701,-837.5807 57.2701,-819.5807 70.7701,-801.5807 97.7701,-801.5807 111.2701,-819.5807"/>
<text text-anchor="middle" x="84.2701" y="-815.3807" font-family="Times,serif" font-size="14.00" fill="#000000">rz</text>
</g>
<!-- hb&#45;&gt;rz -->
<g id="edge30" class="edge">
<title>hb-&gt;rz</title>
<path fill="none" stroke="#000000" d="M220.6273,-893.1815C194.1034,-878.8648 144.2796,-851.9716 112.763,-834.9601"/>
<polygon fill="#000000" stroke="#000000" points="114.0782,-831.6927 103.6158,-830.0228 110.7532,-837.8527 114.0782,-831.6927"/>
</g>
<!-- qg -->
<g id="node31" class="node">
<title>qg</title>
<polygon fill="#87cefa" stroke="#000000" points="162.8076,-1072.2619 149.3076,-1090.2619 122.3076,-1090.2619 108.8076,-1072.2619 122.3076,-1054.2619 149.3076,-1054.2619 162.8076,-1072.2619"/>
<text text-anchor="middle" x="135.8076" y="-1068.0619" font-family="Times,serif" font-size="14.00" fill="#000000">qg</text>
</g>
<!-- hb&#45;&gt;qg -->
<g id="edge31" class="edge">
<title>hb-&gt;qg</title>
<path fill="none" stroke="#000000" d="M229.6917,-917.6359C212.3492,-946.1988 173.9359,-1009.4651 151.9983,-1045.5959"/>
<polygon fill="#000000" stroke="#000000" points="148.9971,-1043.7952 146.7988,-1054.1595 154.9805,-1047.4282 148.9971,-1043.7952"/>
</g>
<!-- pr -->
<g id="node32" class="node">
<title>pr</title>
<polygon fill="#87cefa" stroke="#000000" points="135.746,-921.87 122.246,-939.87 95.246,-939.87 81.746,-921.87 95.246,-903.87 122.246,-903.87 135.746,-921.87"/>
<text text-anchor="middle" x="108.746" y="-917.67" font-family="Times,serif" font-size="14.00" fill="#000000">pr</text>
</g>
<!-- hb&#45;&gt;pr -->
<g id="edge32" class="edge">
<title>hb-&gt;pr</title>
<path fill="none" stroke="#000000" d="M211.4078,-906.8788C191.5896,-909.7728 164.6007,-913.7138 143.2689,-916.8288"/>
<polygon fill="#000000" stroke="#000000" points="142.6969,-913.3751 133.3076,-918.2834 143.7084,-920.3017 142.6969,-913.3751"/>
</g>
<!-- sx -->
<g id="node24" class="node">
<title>sx</title>
<polygon fill="#87cefa" stroke="#000000" points="907.0146,-1427.3083 893.5146,-1445.3083 866.5146,-1445.3083 853.0146,-1427.3083 866.5146,-1409.3083 893.5146,-1409.3083 907.0146,-1427.3083"/>
<text text-anchor="middle" x="880.0146" y="-1423.1083" font-family="Times,serif" font-size="14.00" fill="#000000">sx</text>
</g>
<!-- sx&#45;&gt;lq -->
<g id="edge18" class="edge">
<title>sx-&gt;lq</title>
<path fill="none" stroke="#000000" d="M878.8834,-1409.0121C877.0143,-1378.7815 873.2789,-1318.3631 871.1702,-1284.2567"/>
<polygon fill="#000000" stroke="#000000" points="874.6577,-1283.9444 870.5472,-1274.1794 867.671,-1284.3764 874.6577,-1283.9444"/>
</g>
<!-- fn -->
<g id="node25" class="node">
<title>fn</title>
<polygon fill="#87cefa" stroke="#000000" points="984.605,-1456.3071 971.105,-1474.3071 944.105,-1474.3071 930.605,-1456.3071 944.105,-1438.3071 971.105,-1438.3071 984.605,-1456.3071"/>
<text text-anchor="middle" x="957.605" y="-1452.1071" font-family="Times,serif" font-size="14.00" fill="#000000">fn</text>
</g>
<!-- sx&#45;&gt;fn -->
<g id="edge19" class="edge">
<title>sx-&gt;fn</title>
<path fill="none" stroke="#000000" d="M901.2165,-1435.2324C909.171,-1438.2053 918.3774,-1441.6461 927.0152,-1444.8744"/>
<polygon fill="#000000" stroke="#000000" points="925.8362,-1448.1702 936.4287,-1448.3927 928.2869,-1441.6132 925.8362,-1448.1702"/>
</g>
<!-- fn&#45;&gt;lq -->
<g id="edge20" class="edge">
<title>fn-&gt;lq</title>
<path fill="none" stroke="#000000" d="M949.4862,-1438.1292C933.526,-1402.3947 898.0726,-1323.0154 880.2669,-1283.149"/>
<polygon fill="#000000" stroke="#000000" points="883.4168,-1281.6188 876.1429,-1273.9154 877.0253,-1284.4735 883.4168,-1281.6188"/>
</g>
<!-- zr -->
<g id="node26" class="node">
<title>zr</title>
<polygon fill="#87cefa" stroke="#000000" points="882.6381,-1472.1748 869.1381,-1490.1748 842.1381,-1490.1748 828.6381,-1472.1748 842.1381,-1454.1748 869.1381,-1454.1748 882.6381,-1472.1748"/>
<text text-anchor="middle" x="855.6381" y="-1467.9748" font-family="Times,serif" font-size="14.00" fill="#000000">zr</text>
</g>
<!-- fn&#45;&gt;zr -->
<g id="edge21" class="edge">
<title>fn-&gt;zr</title>
<path fill="none" stroke="#000000" d="M933.1814,-1460.1078C920.1909,-1462.1293 904.0087,-1464.6476 889.7927,-1466.8598"/>
<polygon fill="#000000" stroke="#000000" points="889.2053,-1463.409 879.8624,-1468.4051 890.2817,-1470.3257 889.2053,-1463.409"/>
</g>
<!-- zr&#45;&gt;lq -->
<g id="edge73" class="edge">
<title>zr-&gt;lq</title>
<path fill="none" stroke="#000000" d="M856.831,-1454.0279C859.3356,-1415.9261 865.1451,-1327.5462 867.9942,-1284.2035"/>
<polygon fill="#000000" stroke="#000000" points="871.5033,-1284.1795 868.6668,-1273.9714 864.5183,-1283.7203 871.5033,-1284.1795"/>
</g>
<!-- pf -->
<g id="node27" class="node">
<title>pf</title>
<polygon fill="#87cefa" stroke="#000000" points="1414.4654,-461.3199 1400.9654,-479.3199 1373.9654,-479.3199 1360.4654,-461.3199 1373.9654,-443.3199 1400.9654,-443.3199 1414.4654,-461.3199"/>
<text text-anchor="middle" x="1387.4654" y="-457.1199" font-family="Times,serif" font-size="14.00" fill="#000000">pf</text>
</g>
<!-- pf&#45;&gt;dl -->
<g id="edge22" class="edge">
<title>pf-&gt;dl</title>
<path fill="none" stroke="#000000" d="M1376.4585,-479.3901C1356.5661,-512.0477 1314.6708,-580.8278 1292.8235,-616.6949"/>
<polygon fill="#000000" stroke="#000000" points="1289.6898,-615.1115 1287.4768,-625.4726 1295.6681,-618.753 1289.6898,-615.1115"/>
</g>
<!-- gv -->
<g id="node28" class="node">
<title>gv</title>
<polygon fill="#87cefa" stroke="#000000" points="1504.5104,-521.2842 1491.0104,-539.2842 1464.0104,-539.2842 1450.5104,-521.2842 1464.0104,-503.2842 1491.0104,-503.2842 1504.5104,-521.2842"/>
<text text-anchor="middle" x="1477.5104" y="-517.0842" font-family="Times,serif" font-size="14.00" fill="#000000">gv</text>
</g>
<!-- pf&#45;&gt;gv -->
<g id="edge23" class="edge">
<title>pf-&gt;gv</title>
<path fill="none" stroke="#000000" d="M1405.6873,-473.4546C1418.6246,-482.07 1436.2039,-493.7767 1450.7325,-503.4518"/>
<polygon fill="#000000" stroke="#000000" points="1449.0522,-506.5379 1459.3155,-509.1676 1452.9322,-500.7116 1449.0522,-506.5379"/>
</g>
<!-- gv&#45;&gt;dl -->
<g id="edge54" class="edge">
<title>gv-&gt;dl</title>
<path fill="none" stroke="#000000" d="M1458.8259,-532.4101C1423.1711,-553.6413 1345.3678,-599.9703 1304.7519,-624.1557"/>
<polygon fill="#000000" stroke="#000000" points="1302.7763,-621.2584 1295.975,-629.382 1306.3578,-627.2729 1302.7763,-621.2584"/>
</g>
<!-- gv&#45;&gt;jg -->
<g id="edge55" class="edge">
<title>gv-&gt;jg</title>
<path fill="none" stroke="#000000" d="M1451.2685,-522.7379C1450.922,-522.7571 1450.5745,-522.7763 1450.2264,-522.7956"/>
<polygon fill="#000000" stroke="#000000" points="1449.8682,-519.31 1440.0771,-523.3578 1450.2554,-526.2993 1449.8682,-519.31"/>
</g>
<!-- lr -->
<g id="node29" class="node">
<title>lr</title>
<polygon fill="#87cefa" stroke="#000000" points="1086.2125,-1342.4194 1072.7125,-1360.4194 1045.7125,-1360.4194 1032.2125,-1342.4194 1045.7125,-1324.4194 1072.7125,-1324.4194 1086.2125,-1342.4194"/>
<text text-anchor="middle" x="1059.2125" y="-1338.2194" font-family="Times,serif" font-size="14.00" fill="#000000">lr</text>
</g>
<!-- lr&#45;&gt;jj -->
<g id="edge24" class="edge">
<title>lr-&gt;jj</title>
<path fill="none" stroke="#000000" d="M1049.7341,-1360.592C1046.729,-1366.3538 1043.3375,-1372.8561 1040.0735,-1379.1141"/>
<polygon fill="#000000" stroke="#000000" points="1036.9637,-1377.5081 1035.4424,-1387.9931 1043.1703,-1380.7453 1036.9637,-1377.5081"/>
</g>
<!-- lr&#45;&gt;lq -->
<g id="edge25" class="edge">
<title>lr-&gt;lq</title>
<path fill="none" stroke="#000000" d="M1038.5629,-1333.3693C1006.8018,-1319.4495 945.5165,-1292.5902 906.146,-1275.3354"/>
<polygon fill="#000000" stroke="#000000" points="907.2039,-1271.9778 896.64,-1271.1693 904.394,-1278.3891 907.2039,-1271.9778"/>
</g>
<!-- rz&#45;&gt;pr -->
<g id="edge69" class="edge">
<title>rz-&gt;pr</title>
<path fill="none" stroke="#000000" d="M88.6459,-837.8679C92.3701,-853.432 97.7788,-876.036 102.0477,-893.8765"/>
<polygon fill="#000000" stroke="#000000" points="98.677,-894.8301 104.4081,-903.7411 105.4848,-893.2011 98.677,-894.8301"/>
</g>
<!-- vk -->
<g id="node38" class="node">
<title>vk</title>
<polygon fill="#87cefa" stroke="#000000" points="246.4656,-1071.8569 232.9656,-1089.8569 205.9656,-1089.8569 192.4656,-1071.8569 205.9656,-1053.8569 232.9656,-1053.8569 246.4656,-1071.8569"/>
<text text-anchor="middle" x="219.4656" y="-1067.6569" font-family="Times,serif" font-size="14.00" fill="#000000">vk</text>
</g>
<!-- qg&#45;&gt;vk -->
<g id="edge38" class="edge">
<title>qg-&gt;vk</title>
<path fill="none" stroke="#000000" d="M162.738,-1072.1315C168.9445,-1072.1015 175.6544,-1072.069 182.2125,-1072.0372"/>
<polygon fill="#000000" stroke="#000000" points="182.3159,-1075.5369 192.2988,-1071.9884 182.2819,-1068.537 182.3159,-1075.5369"/>
</g>
<!-- zq -->
<g id="node34" class="node">
<title>zq</title>
<polygon fill="#87cefa" stroke="#000000" points="87.6512,-1014.3461 74.1512,-1032.3461 47.1512,-1032.3461 33.6512,-1014.3461 47.1512,-996.3461 74.1512,-996.3461 87.6512,-1014.3461"/>
<text text-anchor="middle" x="60.6512" y="-1010.1461" font-family="Times,serif" font-size="14.00" fill="#000000">zq</text>
</g>
<!-- pr&#45;&gt;zq -->
<g id="edge35" class="edge">
<title>pr-&gt;zq</title>
<path fill="none" stroke="#000000" d="M99.244,-940.1403C92.2616,-953.5662 82.6583,-972.0312 74.7783,-987.1827"/>
<polygon fill="#000000" stroke="#000000" points="71.6424,-985.6269 70.1335,-996.1138 77.8528,-988.8568 71.6424,-985.6269"/>
</g>
<!-- vg&#45;&gt;hf -->
<g id="edge33" class="edge">
<title>vg-&gt;hf</title>
<path fill="none" stroke="#000000" d="M665.6703,-87.5578C653.6661,-117.9225 629.436,-179.2124 615.848,-213.5831"/>
<polygon fill="#000000" stroke="#000000" points="612.5789,-212.3326 612.1572,-222.919 619.0886,-214.9062 612.5789,-212.3326"/>
</g>
<!-- vg&#45;&gt;zz -->
<g id="edge34" class="edge">
<title>vg-&gt;zz</title>
<path fill="none" stroke="#000000" d="M653.4272,-59.331C639.138,-51.8508 619.47,-41.5549 603.3645,-33.1238"/>
<polygon fill="#000000" stroke="#000000" points="604.8438,-29.9477 594.361,-28.4106 601.5973,-36.1493 604.8438,-29.9477"/>
</g>
<!-- zq&#45;&gt;hb -->
<g id="edge70" class="edge">
<title>zq-&gt;hb</title>
<path fill="none" stroke="#000000" d="M79.0285,-1002.8395C109.2057,-983.9444 169.6174,-946.1185 206.8477,-922.8072"/>
<polygon fill="#000000" stroke="#000000" points="208.7091,-925.7713 215.3273,-917.4978 204.9942,-919.8383 208.7091,-925.7713"/>
</g>
<!-- zq&#45;&gt;qg -->
<g id="edge71" class="edge">
<title>zq-&gt;qg</title>
<path fill="none" stroke="#000000" d="M78.0825,-1027.7787C87.6631,-1035.1616 99.7241,-1044.4559 110.3409,-1052.6372"/>
<polygon fill="#000000" stroke="#000000" points="108.4134,-1055.5705 118.4708,-1058.9022 112.6862,-1050.0258 108.4134,-1055.5705"/>
</g>
<!-- hn&#45;&gt;pf -->
<g id="edge36" class="edge">
<title>hn-&gt;pf</title>
<path fill="none" stroke="#000000" d="M1330.5513,-476.5175C1338.1858,-474.4789 1346.8678,-472.1606 1355.1104,-469.9596"/>
<polygon fill="#000000" stroke="#000000" points="1356.0884,-473.3211 1364.8469,-467.3597 1354.2824,-466.5581 1356.0884,-473.3211"/>
</g>
<!-- tj -->
<g id="node37" class="node">
<title>tj</title>
<polygon fill="#87cefa" stroke="#000000" points="1518.3116,-606.4926 1504.8116,-624.4926 1477.8116,-624.4926 1464.3116,-606.4926 1477.8116,-588.4926 1504.8116,-588.4926 1518.3116,-606.4926"/>
<text text-anchor="middle" x="1491.3116" y="-602.2926" font-family="Times,serif" font-size="14.00" fill="#000000">tj</text>
</g>
<!-- jg&#45;&gt;tj -->
<g id="edge37" class="edge">
<title>jg-&gt;tj</title>
<path fill="none" stroke="#000000" d="M1429.1905,-540.9463C1440.5359,-552.9173 1456.1798,-569.4237 1468.93,-582.877"/>
<polygon fill="#000000" stroke="#000000" points="1466.6291,-585.5373 1476.0484,-590.3879 1471.7099,-580.7221 1466.6291,-585.5373"/>
</g>
<!-- tj&#45;&gt;dl -->
<g id="edge59" class="edge">
<title>tj-&gt;dl</title>
<path fill="none" stroke="#000000" d="M1466.9457,-610.2844C1429.9999,-616.0339 1359.5275,-627.0007 1316.1318,-633.7539"/>
<polygon fill="#000000" stroke="#000000" points="1315.3267,-630.337 1305.9838,-635.3331 1316.4031,-637.2538 1315.3267,-630.337"/>
</g>
<!-- zs -->
<g id="node49" class="node">
<title>zs</title>
<polygon fill="#87cefa" stroke="#000000" points="1451.3996,-701.164 1437.8996,-719.164 1410.8996,-719.164 1397.3996,-701.164 1410.8996,-683.164 1437.8996,-683.164 1451.3996,-701.164"/>
<text text-anchor="middle" x="1424.3996" y="-696.964" font-family="Times,serif" font-size="14.00" fill="#000000">zs</text>
</g>
<!-- tj&#45;&gt;zs -->
<g id="edge60" class="edge">
<title>tj-&gt;zs</title>
<path fill="none" stroke="#000000" d="M1478.4103,-624.7462C1468.413,-638.8909 1454.4178,-658.6922 1443.1788,-674.594"/>
<polygon fill="#000000" stroke="#000000" points="1440.1749,-672.7801 1437.2613,-682.9664 1445.8912,-676.8203 1440.1749,-672.7801"/>
</g>
<!-- vk&#45;&gt;hb -->
<g id="edge85" class="edge">
<title>vk-&gt;hb</title>
<path fill="none" stroke="#000000" d="M221.5173,-1053.7758C224.9515,-1023.5108 231.8711,-962.5308 235.7799,-928.0844"/>
<polygon fill="#000000" stroke="#000000" points="239.285,-928.2363 236.9349,-917.9054 232.3296,-927.447 239.285,-928.2363"/>
</g>
<!-- fx -->
<g id="node58" class="node">
<title>fx</title>
<polygon fill="#87cefa" stroke="#000000" points="168.5079,-1016.3317 155.0079,-1034.3317 128.0079,-1034.3317 114.5079,-1016.3317 128.0079,-998.3317 155.0079,-998.3317 168.5079,-1016.3317"/>
<text text-anchor="middle" x="141.5079" y="-1012.1317" font-family="Times,serif" font-size="14.00" fill="#000000">fx</text>
</g>
<!-- vk&#45;&gt;fx -->
<g id="edge86" class="edge">
<title>vk-&gt;fx</title>
<path fill="none" stroke="#000000" d="M201.7758,-1059.2573C191.6091,-1052.0161 178.655,-1042.7896 167.3641,-1034.7477"/>
<polygon fill="#000000" stroke="#000000" points="169.3034,-1031.832 159.1277,-1028.8814 165.2424,-1037.5336 169.3034,-1031.832"/>
</g>
<!-- dv -->
<g id="node39" class="node">
<title>dv</title>
<polygon fill="#87cefa" stroke="#000000" points="480.3987,-237.0405 466.8987,-255.0405 439.8987,-255.0405 426.3987,-237.0405 439.8987,-219.0405 466.8987,-219.0405 480.3987,-237.0405"/>
<text text-anchor="middle" x="453.3987" y="-232.8405" font-family="Times,serif" font-size="14.00" fill="#000000">dv</text>
</g>
<!-- dv&#45;&gt;hf -->
<g id="edge39" class="edge">
<title>dv-&gt;hf</title>
<path fill="none" stroke="#000000" d="M480.3364,-237.2794C504.8167,-237.4965 541.1762,-237.819 568.502,-238.0614"/>
<polygon fill="#000000" stroke="#000000" points="568.8268,-241.5643 578.8574,-238.1532 568.8889,-234.5646 568.8268,-241.5643"/>
</g>
<!-- dv&#45;&gt;xl -->
<g id="edge40" class="edge">
<title>dv-&gt;xl</title>
<path fill="none" stroke="#000000" d="M439.5472,-218.9858C433.8413,-211.5485 427.1175,-202.7843 420.8808,-194.6552"/>
<polygon fill="#000000" stroke="#000000" points="423.4849,-192.2994 414.621,-186.4958 417.9311,-196.5603 423.4849,-192.2994"/>
</g>
<!-- fm&#45;&gt;lr -->
<g id="edge42" class="edge">
<title>fm-&gt;lr</title>
<path fill="none" stroke="#000000" d="M1051.5462,-1274.4121C1052.8361,-1285.8554 1054.5248,-1300.835 1055.9888,-1313.8221"/>
<polygon fill="#000000" stroke="#000000" points="1052.5538,-1314.5963 1057.1521,-1324.1413 1059.5098,-1313.8121 1052.5538,-1314.5963"/>
</g>
<!-- ls&#45;&gt;kz -->
<g id="edge43" class="edge">
<title>ls-&gt;kz</title>
<path fill="none" stroke="#000000" d="M971.1443,-675.764C917.481,-684.2052 797.492,-703.0795 736.4611,-712.6797"/>
<polygon fill="#000000" stroke="#000000" points="735.8198,-709.2374 726.4851,-714.2489 736.9076,-716.1524 735.8198,-709.2374"/>
</g>
<!-- pd&#45;&gt;hb -->
<g id="edge44" class="edge">
<title>pd-&gt;hb</title>
<path fill="none" stroke="#000000" d="M201.7741,-772.6114C209.1835,-798.7994 222.8842,-847.2239 231.3348,-877.0923"/>
<polygon fill="#000000" stroke="#000000" points="227.9957,-878.1469 234.086,-886.8163 234.7313,-876.2412 227.9957,-878.1469"/>
</g>
<!-- xg -->
<g id="node43" class="node">
<title>xg</title>
<polygon fill="#87cefa" stroke="#000000" points="135.0029,-747.4988 121.5029,-765.4988 94.5029,-765.4988 81.0029,-747.4988 94.5029,-729.4988 121.5029,-729.4988 135.0029,-747.4988"/>
<text text-anchor="middle" x="108.0029" y="-743.2988" font-family="Times,serif" font-size="14.00" fill="#000000">xg</text>
</g>
<!-- pd&#45;&gt;xg -->
<g id="edge45" class="edge">
<title>pd-&gt;xg</title>
<path fill="none" stroke="#000000" d="M170.9899,-752.4056C162.4475,-751.7401 152.7715,-750.9863 143.6119,-750.2728"/>
<polygon fill="#000000" stroke="#000000" points="143.8194,-746.7784 133.5777,-749.4911 143.2756,-753.7573 143.8194,-746.7784"/>
</g>
<!-- xg&#45;&gt;hb -->
<g id="edge67" class="edge">
<title>xg-&gt;hb</title>
<path fill="none" stroke="#000000" d="M122.4822,-764.7235C146.5279,-793.3284 194.6295,-850.5506 220.7552,-881.6299"/>
<polygon fill="#000000" stroke="#000000" points="218.3891,-884.2545 227.503,-889.6572 223.7475,-879.7503 218.3891,-884.2545"/>
</g>
<!-- xg&#45;&gt;rz -->
<g id="edge68" class="edge">
<title>xg-&gt;rz</title>
<path fill="none" stroke="#000000" d="M102.0141,-765.6881C99.4002,-773.6273 96.2771,-783.1126 93.3849,-791.897"/>
<polygon fill="#000000" stroke="#000000" points="90.0599,-790.8042 90.257,-801.3972 96.7088,-792.9934 90.0599,-790.8042"/>
</g>
<!-- rj -->
<g id="node44" class="node">
<title>rj</title>
<polygon fill="#87cefa" stroke="#000000" points="53.7148,-873.2102 40.2148,-891.2102 13.2148,-891.2102 -.2852,-873.2102 13.2148,-855.2102 40.2148,-855.2102 53.7148,-873.2102"/>
<text text-anchor="middle" x="26.7148" y="-869.0102" font-family="Times,serif" font-size="14.00" fill="#000000">rj</text>
</g>
<!-- rj&#45;&gt;hb -->
<g id="edge46" class="edge">
<title>rj-&gt;hb</title>
<path fill="none" stroke="#000000" d="M51.4398,-876.6744C88.3576,-881.847 158.1552,-891.6263 201.3049,-897.672"/>
<polygon fill="#000000" stroke="#000000" points="201.0125,-901.1651 211.4015,-899.0866 201.9839,-894.2328 201.0125,-901.1651"/>
</g>
<!-- fb&#45;&gt;hf -->
<g id="edge47" class="edge">
<title>fb-&gt;hf</title>
<path fill="none" stroke="#000000" d="M713.2253,-302.0602C693.7363,-290.4842 662.9281,-272.1849 639.3327,-258.1698"/>
<polygon fill="#000000" stroke="#000000" points="641.0664,-255.1288 630.6813,-253.0311 637.4916,-261.1471 641.0664,-255.1288"/>
</g>
<!-- fb&#45;&gt;tq -->
<g id="edge48" class="edge">
<title>fb-&gt;tq</title>
<path fill="none" stroke="#000000" d="M736.2512,-295.1589C741.9394,-270.3577 752.2104,-225.5745 758.9233,-196.3055"/>
<polygon fill="#000000" stroke="#000000" points="762.3962,-196.8192 761.2203,-186.2898 755.5734,-195.2543 762.3962,-196.8192"/>
</g>
<!-- np&#45;&gt;hf -->
<g id="edge63" class="edge">
<title>np-&gt;hf</title>
<path fill="none" stroke="#000000" d="M505.1665,-78.408C525.7354,-111.0307 569.0556,-179.7373 591.646,-215.5662"/>
<polygon fill="#000000" stroke="#000000" points="588.8804,-217.7423 597.1745,-224.3346 594.8017,-214.0088 588.8804,-217.7423"/>
</g>
<!-- cl -->
<g id="node52" class="node">
<title>cl</title>
<polygon fill="#87cefa" stroke="#000000" points="607.2479,-89.0491 593.7479,-107.0491 566.7479,-107.0491 553.2479,-89.0491 566.7479,-71.0491 593.7479,-71.0491 607.2479,-89.0491"/>
<text text-anchor="middle" x="580.2479" y="-84.8491" font-family="Times,serif" font-size="14.00" fill="#000000">cl</text>
</g>
<!-- np&#45;&gt;cl -->
<g id="edge64" class="edge">
<title>np-&gt;cl</title>
<path fill="none" stroke="#000000" d="M515.6034,-67.5972C525.6385,-70.9273 537.7331,-74.9408 548.733,-78.5911"/>
<polygon fill="#000000" stroke="#000000" points="547.8433,-81.9834 558.4367,-81.8112 550.048,-75.3397 547.8433,-81.9834"/>
</g>
<!-- xn -->
<g id="node47" class="node">
<title>xn</title>
<polygon fill="#87cefa" stroke="#000000" points="1001.0844,-1165.6263 987.5844,-1183.6263 960.5844,-1183.6263 947.0844,-1165.6263 960.5844,-1147.6263 987.5844,-1147.6263 1001.0844,-1165.6263"/>
<text text-anchor="middle" x="974.0844" y="-1161.4263" font-family="Times,serif" font-size="14.00" fill="#000000">xn</text>
</g>
<!-- xn&#45;&gt;lq -->
<g id="edge52" class="edge">
<title>xn-&gt;lq</title>
<path fill="none" stroke="#000000" d="M957.7632,-1180.2677C939.709,-1196.4638 910.5597,-1222.6132 890.7707,-1240.3656"/>
<polygon fill="#000000" stroke="#000000" points="888.2843,-1237.8941 883.1778,-1247.1771 892.9587,-1243.1047 888.2843,-1237.8941"/>
</g>
<!-- xn&#45;&gt;fm -->
<g id="edge53" class="edge">
<title>xn-&gt;fm</title>
<path fill="none" stroke="#000000" d="M988.6219,-1183.072C999.9593,-1196.6774 1015.8596,-1215.7584 1028.565,-1231.0054"/>
<polygon fill="#000000" stroke="#000000" points="1026.1549,-1233.5805 1035.2455,-1239.0223 1031.5326,-1229.0993 1026.1549,-1233.5805"/>
</g>
<!-- dz&#45;&gt;sx -->
<g id="edge56" class="edge">
<title>dz-&gt;sx</title>
<path fill="none" stroke="#000000" d="M806.3112,-1428.0833C817.4843,-1427.9659 830.6301,-1427.8276 842.7023,-1427.7007"/>
<polygon fill="#000000" stroke="#000000" points="842.9957,-1431.1979 852.9583,-1427.5928 842.922,-1424.1983 842.9957,-1431.1979"/>
</g>
<!-- zs&#45;&gt;dl -->
<g id="edge57" class="edge">
<title>zs-&gt;dl</title>
<path fill="none" stroke="#000000" d="M1403.8622,-692.4665C1380.9491,-682.763 1343.4309,-666.8743 1315.4745,-655.0349"/>
<polygon fill="#000000" stroke="#000000" points="1316.5976,-651.7096 1306.0244,-651.0328 1313.8678,-658.1555 1316.5976,-651.7096"/>
</g>
<!-- nh -->
<g id="node50" class="node">
<title>nh</title>
<polygon fill="#87cefa" stroke="#000000" points="1493.5764,-756.7309 1480.0764,-774.7309 1453.0764,-774.7309 1439.5764,-756.7309 1453.0764,-738.7309 1480.0764,-738.7309 1493.5764,-756.7309"/>
<text text-anchor="middle" x="1466.5764" y="-752.5309" font-family="Times,serif" font-size="14.00" fill="#000000">nh</text>
</g>
<!-- zs&#45;&gt;nh -->
<g id="edge58" class="edge">
<title>zs-&gt;nh</title>
<path fill="none" stroke="#000000" d="M1438.2098,-719.3587C1440.9321,-722.9452 1443.8388,-726.7747 1446.715,-730.564"/>
<polygon fill="#000000" stroke="#000000" points="1444.0453,-732.8358 1452.8791,-738.6851 1449.621,-728.6036 1444.0453,-732.8358"/>
</g>
<!-- nh&#45;&gt;dl -->
<g id="edge82" class="edge">
<title>nh-&gt;dl</title>
<path fill="none" stroke="#000000" d="M1447.8955,-745.0665C1416.0514,-725.1829 1350.8828,-684.4914 1311.43,-659.857"/>
<polygon fill="#000000" stroke="#000000" points="1312.8036,-656.5884 1302.4676,-654.2608 1309.0962,-662.526 1312.8036,-656.5884"/>
</g>
<!-- cl&#45;&gt;hf -->
<g id="edge80" class="edge">
<title>cl-&gt;hf</title>
<path fill="none" stroke="#000000" d="M583.359,-107.0636C587.8456,-133.0434 596.1655,-181.2202 601.3851,-211.4442"/>
<polygon fill="#000000" stroke="#000000" points="598.0042,-212.4342 603.155,-221.6927 604.9021,-211.2429 598.0042,-212.4342"/>
</g>
<!-- gj -->
<g id="node57" class="node">
<title>gj</title>
<polygon fill="#87cefa" stroke="#000000" points="505.125,-121.1517 491.625,-139.1517 464.625,-139.1517 451.125,-121.1517 464.625,-103.1517 491.625,-103.1517 505.125,-121.1517"/>
<text text-anchor="middle" x="478.125" y="-116.9517" font-family="Times,serif" font-size="14.00" fill="#000000">gj</text>
</g>
<!-- cl&#45;&gt;gj -->
<g id="edge81" class="edge">
<title>cl-&gt;gj</title>
<path fill="none" stroke="#000000" d="M558.34,-95.9359C544.2055,-100.3791 525.5889,-106.2313 509.8488,-111.1793"/>
<polygon fill="#000000" stroke="#000000" points="508.4869,-107.9385 499.9967,-114.2763 510.5861,-114.6163 508.4869,-107.9385"/>
</g>
<!-- bg&#45;&gt;kz -->
<g id="edge65" class="edge">
<title>bg-&gt;kz</title>
<path fill="none" stroke="#000000" d="M777.335,-975.9195C763.445,-930.1185 723.2298,-797.5132 706.6035,-742.6896"/>
<polygon fill="#000000" stroke="#000000" points="709.9478,-741.6568 703.6962,-733.103 703.2491,-743.6884 709.9478,-741.6568"/>
</g>
<!-- rd&#45;&gt;lq -->
<g id="edge78" class="edge">
<title>rd-&gt;lq</title>
<path fill="none" stroke="#000000" d="M748.5534,-1339.895C771.4427,-1324.6645 811.08,-1298.2898 838.7449,-1279.8816"/>
<polygon fill="#000000" stroke="#000000" points="840.8835,-1282.6627 847.27,-1274.2091 837.0057,-1276.8349 840.8835,-1282.6627"/>
</g>
<!-- rd&#45;&gt;dz -->
<g id="edge79" class="edge">
<title>rd-&gt;dz</title>
<path fill="none" stroke="#000000" d="M741.9531,-1370.1065C747.9488,-1379.4524 755.3845,-1391.0428 762.041,-1401.4186"/>
<polygon fill="#000000" stroke="#000000" points="759.2885,-1403.6101 767.6342,-1410.1371 765.1803,-1399.8303 759.2885,-1403.6101"/>
</g>
<!-- fl -->
<g id="node55" class="node">
<title>fl</title>
<polygon fill="#87cefa" stroke="#000000" points="62.1697,-955.4439 48.6697,-973.4439 21.6697,-973.4439 8.1697,-955.4439 21.6697,-937.4439 48.6697,-937.4439 62.1697,-955.4439"/>
<text text-anchor="middle" x="35.1697" y="-951.2439" font-family="Times,serif" font-size="14.00" fill="#000000">fl</text>
</g>
<!-- fl&#45;&gt;hb -->
<g id="edge74" class="edge">
<title>fl-&gt;hb</title>
<path fill="none" stroke="#000000" d="M58.1145,-949.5189C93.0633,-940.4941 159.9757,-923.2153 201.7897,-912.4177"/>
<polygon fill="#000000" stroke="#000000" points="202.7815,-915.7765 211.5888,-909.8873 201.0313,-908.9988 202.7815,-915.7765"/>
</g>
<!-- fl&#45;&gt;rj -->
<g id="edge75" class="edge">
<title>fl-&gt;rj</title>
<path fill="none" stroke="#000000" d="M33.2933,-937.1936C32.2206,-926.76 30.8517,-913.4461 29.6407,-901.6678"/>
<polygon fill="#000000" stroke="#000000" points="33.0905,-900.9991 28.586,-891.4095 26.1272,-901.7151 33.0905,-900.9991"/>
</g>
<!-- xr&#45;&gt;lq -->
<g id="edge76" class="edge">
<title>xr-&gt;lq</title>
<path fill="none" stroke="#000000" d="M865.4967,-1047.6558C861.9093,-1087.9883 861.8235,-1185.6515 865.0918,-1232.8811"/>
<polygon fill="#000000" stroke="#000000" points="861.6117,-1233.2681 865.9166,-1242.949 868.5883,-1232.6966 861.6117,-1233.2681"/>
</g>
<!-- xr&#45;&gt;xn -->
<g id="edge77" class="edge">
<title>xr-&gt;xn</title>
<path fill="none" stroke="#000000" d="M883.0118,-1047.4056C901.1299,-1070.9246 933.1987,-1112.5529 954.0429,-1139.6107"/>
<polygon fill="#000000" stroke="#000000" points="951.5088,-1142.0563 960.3842,-1147.8423 957.0542,-1137.7844 951.5088,-1142.0563"/>
</g>
<!-- gj&#45;&gt;hf -->
<g id="edge87" class="edge">
<title>gj-&gt;hf</title>
<path fill="none" stroke="#000000" d="M494.3255,-136.0006C517.3768,-157.1288 559.6575,-195.882 585.0726,-219.1769"/>
<polygon fill="#000000" stroke="#000000" points="582.9491,-221.9783 592.686,-226.155 587.679,-216.8179 582.9491,-221.9783"/>
</g>
<!-- gj&#45;&gt;dv -->
<g id="edge88" class="edge">
<title>gj-&gt;dv</title>
<path fill="none" stroke="#000000" d="M474.2615,-139.2594C470.2929,-157.8599 464.0594,-187.0754 459.4385,-208.7326"/>
<polygon fill="#000000" stroke="#000000" points="455.9804,-208.1674 457.3166,-218.6776 462.8263,-209.6281 455.9804,-208.1674"/>
</g>
<!-- fx&#45;&gt;hb -->
<g id="edge96" class="edge">
<title>fx-&gt;hb</title>
<path fill="none" stroke="#000000" d="M156.2598,-999.1043C173.1065,-979.4305 200.7299,-947.1714 219.2906,-925.496"/>
<polygon fill="#000000" stroke="#000000" points="222.0733,-927.6274 225.9191,-917.7552 216.7563,-923.0744 222.0733,-927.6274"/>
</g>
<!-- fx&#45;&gt;fl -->
<g id="edge97" class="edge">
<title>fx-&gt;fl</title>
<path fill="none" stroke="#000000" d="M122.4968,-1005.4462C105.9657,-995.9808 81.7951,-982.1409 63.0715,-971.4201"/>
<polygon fill="#000000" stroke="#000000" points="64.7921,-968.3721 54.3748,-966.4405 61.3138,-974.4468 64.7921,-968.3721"/>
</g>
<!-- broadcaster -->
<g id="node59" class="node">
<title>broadcaster</title>
<ellipse fill="#adff2f" stroke="#000000" cx="790.3565" cy="-773.148" rx="55.5753" ry="18"/>
<text text-anchor="middle" x="790.3565" y="-768.948" font-family="Times,serif" font-size="14.00" fill="#000000">broadcaster</text>
</g>
<!-- broadcaster&#45;&gt;rg -->
<g id="edge106" class="edge">
<title>broadcaster-&gt;rg</title>
<path fill="none" stroke="#000000" d="M786.5115,-755.1115C775.4521,-703.2324 743.4989,-553.341 730.1423,-490.6858"/>
<polygon fill="#000000" stroke="#000000" points="733.5266,-489.774 728.0186,-480.7235 726.6805,-491.2335 733.5266,-489.774"/>
</g>
<!-- broadcaster&#45;&gt;sv -->
<g id="edge107" class="edge">
<title>broadcaster-&gt;sv</title>
<path fill="none" stroke="#000000" d="M838.2603,-764.0137C897.1282,-752.7888 995.5054,-734.0304 1046.8885,-724.2327"/>
<polygon fill="#000000" stroke="#000000" points="1047.6435,-727.6519 1056.8109,-722.3407 1046.3323,-720.7758 1047.6435,-727.6519"/>
</g>
<!-- broadcaster&#45;&gt;mr -->
<g id="edge108" class="edge">
<title>broadcaster-&gt;mr</title>
<path fill="none" stroke="#000000" d="M745.3346,-783.8653C683.8671,-798.4974 575.1067,-824.3875 520.5702,-837.3698"/>
<polygon fill="#000000" stroke="#000000" points="519.6462,-833.9918 510.7286,-839.7125 521.2673,-840.8016 519.6462,-833.9918"/>
</g>
<!-- broadcaster&#45;&gt;xr -->
<g id="edge109" class="edge">
<title>broadcaster-&gt;xr</title>
<path fill="none" stroke="#000000" d="M795.9087,-791.183C809.5001,-835.3313 844.5146,-949.0675 860.7782,-1001.8959"/>
<polygon fill="#000000" stroke="#000000" points="857.4815,-1003.0833 863.769,-1011.6108 864.1717,-1001.0237 857.4815,-1003.0833"/>
</g>
</g>
</svg>